<svg width="234" height="48" viewBox="0 0 234 48" fill="none" xmlns="http://www.w3.org/2000/svg">
<path d="M1.14632 19.3636V15.5455H16.3168V19.3636H11.0668V33H6.39632V19.3636H1.14632ZM17.8602 33V15.5455H22.5988V22.3636H28.8715V15.5455H33.6102V33H28.8715V26.1818H22.5988V33H17.8602ZM35.6202 33V15.5455H48.1997V19.3636H40.3588V22.3636H47.552V26.1818H40.3588V29.1818H48.1656V33H35.6202ZM163.039 33H157.925L163.687 15.5455H170.164L175.925 33H170.812L166.993 20.3523H166.857L163.039 33ZM162.084 26.1136H171.698V29.6591H162.084V26.1136ZM177.366 33V15.5455H184.901C186.196 15.5455 187.329 15.8011 188.301 16.3125C189.273 16.8239 190.028 17.5426 190.568 18.4688C191.108 19.3949 191.378 20.4773 191.378 21.7159C191.378 22.9659 191.099 24.0483 190.543 24.9631C189.991 25.8778 189.216 26.5824 188.216 27.0767C187.222 27.571 186.06 27.8182 184.73 27.8182H180.23V24.1364H183.776C184.332 24.1364 184.807 24.0398 185.199 23.8466C185.597 23.6477 185.901 23.3665 186.111 23.0028C186.327 22.6392 186.435 22.2102 186.435 21.7159C186.435 21.2159 186.327 20.7898 186.111 20.4375C185.901 20.0795 185.597 19.8068 185.199 19.6193C184.807 19.4261 184.332 19.3295 183.776 19.3295H182.105V33H177.366ZM192.876 33V15.5455H200.41C201.706 15.5455 202.839 15.8011 203.811 16.3125C204.783 16.8239 205.538 17.5426 206.078 18.4688C206.618 19.3949 206.888 20.4773 206.888 21.7159C206.888 22.9659 206.609 24.0483 206.053 24.9631C205.501 25.8778 204.726 26.5824 203.726 27.0767C202.732 27.571 201.57 27.8182 200.24 27.8182H195.74V24.1364H199.285C199.842 24.1364 200.317 24.0398 200.709 23.8466C201.107 23.6477 201.41 23.3665 201.621 23.0028C201.837 22.6392 201.945 22.2102 201.945 21.7159C201.945 21.2159 201.837 20.7898 201.621 20.4375C201.41 20.0795 201.107 19.8068 200.709 19.6193C200.317 19.4261 199.842 19.3295 199.285 19.3295H197.615V33H192.876Z" fill="#DCDBE6"/>
<path d="M54.7417 33L49.5939 15.5455H54.878L57.2644 26.2841H57.4008L60.2303 15.5455H64.3894L67.2189 26.3182H67.3553L69.7417 15.5455H75.0258L69.878 33H65.3439L62.378 23.25H62.2417L59.2758 33H54.7417ZM78.8149 33H73.7012L79.4626 15.5455H85.9399L91.7012 33H86.5876L82.7694 20.3523H82.6331L78.8149 33ZM77.8603 26.1136H87.474V29.6591H77.8603V26.1136ZM93.1423 33V15.5455H97.881V29.1818H104.938V33H93.1423ZM104.05 19.3636V15.5455H119.221V19.3636H113.971V33H109.3V19.3636H104.05ZM120.764 33V15.5455H133.343V19.3636H125.503V22.3636H132.696V26.1818H125.503V29.1818H133.309V33H120.764ZM135.454 33V15.5455H142.988C144.283 15.5455 145.417 15.7812 146.388 16.2528C147.36 16.7244 148.116 17.4034 148.655 18.2898C149.195 19.1761 149.465 20.2386 149.465 21.4773C149.465 22.7273 149.187 23.7812 148.63 24.6392C148.079 25.4972 147.303 26.1449 146.303 26.5824C145.309 27.0199 144.147 27.2386 142.817 27.2386H138.317V23.5568H141.863C142.42 23.5568 142.894 23.4886 143.286 23.3523C143.684 23.2102 143.988 22.9858 144.198 22.679C144.414 22.3722 144.522 21.9716 144.522 21.4773C144.522 20.9773 144.414 20.571 144.198 20.2585C143.988 19.9403 143.684 19.7074 143.286 19.5597C142.894 19.4062 142.42 19.3295 141.863 19.3295H140.192V33H135.454ZM145.681 24.9886L150.045 33H144.897L140.635 24.9886H145.681Z" fill="#2F2E41"/>
<path d="M153.87 33.2727C153.211 33.2727 152.645 33.0426 152.174 32.5824C151.708 32.1165 151.478 31.5511 151.483 30.8864C151.478 30.2386 151.708 29.6847 152.174 29.2244C152.645 28.7642 153.211 28.5341 153.87 28.5341C154.495 28.5341 155.046 28.7642 155.523 29.2244C156.006 29.6847 156.251 30.2386 156.256 30.8864C156.251 31.3295 156.134 31.733 155.907 32.0966C155.685 32.4545 155.395 32.7415 155.037 32.9574C154.68 33.1676 154.29 33.2727 153.87 33.2727Z" fill="#FF481F"/>
<path d="M208 29C208 26.2386 210.239 24 213 24H229C231.761 24 234 26.2386 234 29V29C234 31.7614 231.761 34 229 34H213C210.239 34 208 31.7614 208 29V29Z" fill="#FF3131"/>
<path d="M212.839 32V26.1818H214.802C215.18 26.1818 215.496 26.2481 215.748 26.3807C216.001 26.5133 216.192 26.6941 216.319 26.9233C216.446 27.1525 216.509 27.4129 216.509 27.7045C216.509 27.947 216.468 28.1544 216.387 28.3267C216.305 28.4991 216.195 28.6383 216.054 28.7443C215.914 28.8504 215.758 28.9271 215.586 28.9744V29.0199C215.773 29.0331 215.955 29.0994 216.131 29.2188C216.307 29.3362 216.452 29.5009 216.566 29.7131C216.679 29.9252 216.736 30.179 216.736 30.4744C216.736 30.768 216.671 31.0303 216.54 31.2614C216.41 31.4905 216.209 31.6714 215.938 31.804C215.669 31.9347 215.326 32 214.91 32H212.839ZM213.37 31.5227H214.91C215.358 31.5227 215.69 31.4233 215.904 31.2244C216.12 31.0256 216.228 30.7756 216.228 30.4744C216.228 30.2528 216.174 30.0521 216.066 29.8722C215.96 29.6903 215.809 29.5464 215.614 29.4403C215.421 29.3343 215.194 29.2812 214.932 29.2812H213.37V31.5227ZM213.37 28.8097H214.85C215.079 28.8097 215.28 28.7623 215.452 28.6676C215.624 28.5729 215.759 28.4422 215.856 28.2756C215.952 28.1089 216 27.9186 216 27.7045C216 27.3958 215.9 27.1449 215.699 26.9517C215.499 26.7566 215.199 26.6591 214.802 26.6591H213.37V28.8097ZM219.917 32.0909C219.51 32.0909 219.158 31.9962 218.86 31.8068C218.563 31.6155 218.333 31.3513 218.17 31.0142C218.009 30.6752 217.929 30.285 217.929 29.8438C217.929 29.4044 218.009 29.0142 218.17 28.6733C218.333 28.3305 218.557 28.0625 218.843 27.8693C219.131 27.6742 219.464 27.5767 219.841 27.5767C220.077 27.5767 220.306 27.6203 220.525 27.7074C220.745 27.7926 220.942 27.9242 221.116 28.1023C221.292 28.2784 221.431 28.5009 221.534 28.7699C221.636 29.0369 221.687 29.3532 221.687 29.7188V29.9688H218.278V29.5227H221.17C221.17 29.2424 221.113 28.9905 221 28.767C220.888 28.5417 220.732 28.3636 220.531 28.233C220.332 28.1023 220.102 28.0369 219.841 28.0369C219.564 28.0369 219.321 28.1108 219.11 28.2585C218.9 28.4062 218.735 28.6013 218.616 28.8438C218.499 29.0862 218.439 29.3513 218.437 29.6392V29.9062C218.437 30.2528 218.497 30.5559 218.616 30.8153C218.737 31.0729 218.909 31.2727 219.13 31.4148C219.352 31.5568 219.614 31.6278 219.917 31.6278C220.124 31.6278 220.305 31.5956 220.46 31.5312C220.617 31.4669 220.749 31.3807 220.855 31.2727C220.963 31.1629 221.044 31.0426 221.099 30.9119L221.579 31.0682C221.513 31.2519 221.404 31.4214 221.253 31.5767C221.103 31.732 220.915 31.857 220.69 31.9517C220.467 32.0445 220.209 32.0909 219.917 32.0909ZM224.76 27.6364V28.0767H222.678V27.6364H224.76ZM223.328 26.5909H223.837V30.8608C223.837 31.0426 223.868 31.1856 223.931 31.2898C223.993 31.392 224.075 31.465 224.175 31.5085C224.275 31.5502 224.382 31.571 224.496 31.571C224.562 31.571 224.619 31.5672 224.667 31.5597C224.714 31.5502 224.756 31.5407 224.792 31.5312L224.899 31.9886C224.85 32.0076 224.79 32.0246 224.718 32.0398C224.646 32.0568 224.557 32.0653 224.451 32.0653C224.265 32.0653 224.086 32.0246 223.914 31.9432C223.743 31.8617 223.603 31.7405 223.493 31.5795C223.383 31.4186 223.328 31.2188 223.328 30.9801V26.5909ZM227.367 32.0994C227.104 32.0994 226.864 32.0483 226.646 31.946C226.428 31.8419 226.255 31.6922 226.126 31.4972C225.997 31.3002 225.933 31.0616 225.933 30.7812C225.933 30.5653 225.974 30.3835 226.055 30.2358C226.136 30.0881 226.252 29.9669 226.402 29.8722C226.551 29.7775 226.728 29.7027 226.933 29.6477C227.137 29.5928 227.363 29.5502 227.609 29.5199C227.853 29.4896 228.06 29.4631 228.228 29.4403C228.399 29.4176 228.528 29.3816 228.617 29.3324C228.706 29.2831 228.751 29.2036 228.751 29.0938V28.9915C228.751 28.6941 228.662 28.4602 228.484 28.2898C228.308 28.1174 228.054 28.0312 227.723 28.0312C227.408 28.0312 227.152 28.1004 226.953 28.2386C226.756 28.3769 226.617 28.5398 226.538 28.7273L226.058 28.554C226.156 28.3153 226.293 28.125 226.467 27.983C226.641 27.839 226.836 27.7358 227.052 27.6733C227.268 27.6089 227.487 27.5767 227.708 27.5767C227.875 27.5767 228.048 27.5985 228.228 27.642C228.41 27.6856 228.579 27.7614 228.734 27.8693C228.889 27.9754 229.015 28.1241 229.112 28.3153C229.208 28.5047 229.257 28.7453 229.257 29.0369V32H228.751V31.3097H228.72C228.659 31.4384 228.569 31.5634 228.45 31.6847C228.331 31.8059 228.181 31.9053 228.001 31.983C227.821 32.0606 227.61 32.0994 227.367 32.0994ZM227.436 31.6364C227.705 31.6364 227.938 31.5767 228.135 31.4574C228.331 31.3381 228.483 31.1799 228.589 30.983C228.697 30.7841 228.751 30.5653 228.751 30.3267V29.696C228.713 29.732 228.65 29.7642 228.561 29.7926C228.474 29.821 228.372 29.8466 228.257 29.8693C228.143 29.8902 228.029 29.9081 227.916 29.9233C227.802 29.9384 227.7 29.9517 227.609 29.9631C227.363 29.9934 227.152 30.0407 226.978 30.1051C226.804 30.1695 226.67 30.2585 226.578 30.3722C226.485 30.4839 226.438 30.6278 226.438 30.804C226.438 31.0691 226.533 31.2746 226.723 31.4205C226.912 31.5644 227.15 31.6364 227.436 31.6364Z" fill="white"/>
</svg>
