<svg width="48" height="48" viewBox="0 0 48 48" fill="none" xmlns="http://www.w3.org/2000/svg">
<path d="M10.616 36L3.75233 12.7273H10.7978L13.9796 27.0455H14.1614L17.9341 12.7273H23.4796L27.2523 27.0909H27.4341L30.616 12.7273H37.6614L30.7978 36H24.7523L20.7978 23H20.616L16.6614 36H10.616Z" fill="#3F3D56"/>
<path d="M39.7931 36.3636C38.9143 36.3636 38.1605 36.0568 37.5318 35.4432C36.9105 34.822 36.6037 34.0682 36.6113 33.1818C36.6037 32.3182 36.9105 31.5795 37.5318 30.9659C38.1605 30.3523 38.9143 30.0455 39.7931 30.0455C40.6265 30.0455 41.3613 30.3523 41.9977 30.9659C42.6416 31.5795 42.9674 32.3182 42.9749 33.1818C42.9674 33.7727 42.8121 34.3106 42.509 34.7955C42.2136 35.2727 41.8272 35.6553 41.3499 35.9432C40.8727 36.2235 40.3537 36.3636 39.7931 36.3636Z" fill="#FF481F" fill-opacity="0.9"/>
</svg>
