<svg width="208" height="48" viewBox="0 0 208 48" fill="none" xmlns="http://www.w3.org/2000/svg">
<path d="M1.14632 19.3636V15.5455H16.3168V19.3636H11.0668V33H6.39632V19.3636H1.14632ZM17.8602 33V15.5455H22.5988V22.3636H28.8715V15.5455H33.6102V33H28.8715V26.1818H22.5988V33H17.8602ZM35.6202 33V15.5455H48.1997V19.3636H40.3588V22.3636H47.552V26.1818H40.3588V29.1818H48.1656V33H35.6202ZM163.039 33H157.925L163.687 15.5455H170.164L175.925 33H170.812L166.993 20.3523H166.857L163.039 33ZM162.084 26.1136H171.698V29.6591H162.084V26.1136ZM177.366 33V15.5455H184.901C186.196 15.5455 187.329 15.8011 188.301 16.3125C189.273 16.8239 190.028 17.5426 190.568 18.4688C191.108 19.3949 191.378 20.4773 191.378 21.7159C191.378 22.9659 191.099 24.0483 190.543 24.9631C189.991 25.8778 189.216 26.5824 188.216 27.0767C187.222 27.571 186.06 27.8182 184.73 27.8182H180.23V24.1364H183.776C184.332 24.1364 184.807 24.0398 185.199 23.8466C185.597 23.6477 185.901 23.3665 186.111 23.0028C186.327 22.6392 186.435 22.2102 186.435 21.7159C186.435 21.2159 186.327 20.7898 186.111 20.4375C185.901 20.0795 185.597 19.8068 185.199 19.6193C184.807 19.4261 184.332 19.3295 183.776 19.3295H182.105V33H177.366ZM192.876 33V15.5455H200.41C201.706 15.5455 202.839 15.8011 203.811 16.3125C204.783 16.8239 205.538 17.5426 206.078 18.4688C206.618 19.3949 206.888 20.4773 206.888 21.7159C206.888 22.9659 206.609 24.0483 206.053 24.9631C205.501 25.8778 204.726 26.5824 203.726 27.0767C202.732 27.571 201.57 27.8182 200.24 27.8182H195.74V24.1364H199.285C199.842 24.1364 200.317 24.0398 200.709 23.8466C201.107 23.6477 201.41 23.3665 201.621 23.0028C201.837 22.6392 201.945 22.2102 201.945 21.7159C201.945 21.2159 201.837 20.7898 201.621 20.4375C201.41 20.0795 201.107 19.8068 200.709 19.6193C200.317 19.4261 199.842 19.3295 199.285 19.3295H197.615V33H192.876Z" fill="#2C353A" fill-opacity="0.15"/>
<path d="M54.7417 33L49.5939 15.5455H54.878L57.2644 26.2841H57.4008L60.2303 15.5455H64.3894L67.2189 26.3182H67.3553L69.7417 15.5455H75.0258L69.878 33H65.3439L62.378 23.25H62.2417L59.2758 33H54.7417ZM78.8149 33H73.7012L79.4626 15.5455H85.9399L91.7012 33H86.5876L82.7694 20.3523H82.6331L78.8149 33ZM77.8603 26.1136H87.474V29.6591H77.8603V26.1136ZM93.1423 33V15.5455H97.881V29.1818H104.938V33H93.1423ZM104.05 19.3636V15.5455H119.221V19.3636H113.971V33H109.3V19.3636H104.05ZM120.764 33V15.5455H133.343V19.3636H125.503V22.3636H132.696V26.1818H125.503V29.1818H133.309V33H120.764ZM135.454 33V15.5455H142.988C144.283 15.5455 145.417 15.7812 146.388 16.2528C147.36 16.7244 148.116 17.4034 148.655 18.2898C149.195 19.1761 149.465 20.2386 149.465 21.4773C149.465 22.7273 149.187 23.7812 148.63 24.6392C148.079 25.4972 147.303 26.1449 146.303 26.5824C145.309 27.0199 144.147 27.2386 142.817 27.2386H138.317V23.5568H141.863C142.42 23.5568 142.894 23.4886 143.286 23.3523C143.684 23.2102 143.988 22.9858 144.198 22.679C144.414 22.3722 144.522 21.9716 144.522 21.4773C144.522 20.9773 144.414 20.571 144.198 20.2585C143.988 19.9403 143.684 19.7074 143.286 19.5597C142.894 19.4062 142.42 19.3295 141.863 19.3295H140.192V33H135.454ZM145.681 24.9886L150.045 33H144.897L140.635 24.9886H145.681Z" fill="#2C353A"/>
<path d="M153.87 33.2727C153.211 33.2727 152.645 33.0426 152.174 32.5824C151.708 32.1165 151.478 31.5511 151.483 30.8864C151.478 30.2386 151.708 29.6847 152.174 29.2244C152.645 28.7642 153.211 28.5341 153.87 28.5341C154.495 28.5341 155.046 28.7642 155.523 29.2244C156.006 29.6847 156.251 30.2386 156.256 30.8864C156.251 31.3295 156.134 31.733 155.907 32.0966C155.685 32.4545 155.395 32.7415 155.037 32.9574C154.68 33.1676 154.29 33.2727 153.87 33.2727Z" fill="#FF481F" fill-opacity="0.9"/>
</svg>
