<svg width="112" height="24" viewBox="0 0 112 24" fill="none" xmlns="http://www.w3.org/2000/svg">
<path d="M7.04658 23.5L0.182944 0.227272H7.2284L10.4102 14.5455H10.592L14.3648 0.227272H19.9102L23.6829 14.5909H23.8648L27.0466 0.227272H34.092L27.2284 23.5H21.1829L17.2284 10.5H17.0466L13.092 23.5H7.04658ZM38.7408 23.7727C37.6271 23.7727 36.6423 23.5909 35.7862 23.2273C34.9378 22.8561 34.2711 22.2955 33.7862 21.5455C33.3014 20.7955 33.059 19.8409 33.059 18.6818C33.059 17.7273 33.2218 16.9129 33.5476 16.2386C33.8734 15.5568 34.3279 15 34.9112 14.5682C35.4946 14.1364 36.1726 13.8068 36.9453 13.5795C37.7256 13.3523 38.5665 13.2045 39.4681 13.1364C40.4453 13.0606 41.2294 12.9697 41.8203 12.8636C42.4188 12.75 42.8506 12.5947 43.1158 12.3977C43.3809 12.1932 43.5135 11.9242 43.5135 11.5909V11.5455C43.5135 11.0909 43.3393 10.7424 42.9908 10.5C42.6423 10.2576 42.1953 10.1364 41.6499 10.1364C41.0514 10.1364 40.5628 10.2689 40.184 10.5341C39.8128 10.7917 39.5893 11.1894 39.5135 11.7273H33.7408C33.8165 10.6667 34.1537 9.68939 34.7521 8.79545C35.3582 7.89394 36.2408 7.17424 37.3999 6.63636C38.559 6.09091 40.0059 5.81818 41.7408 5.81818C42.9908 5.81818 44.112 5.96591 45.1044 6.26136C46.0968 6.54924 46.9415 6.95455 47.6385 7.47727C48.3355 7.99242 48.8658 8.59848 49.2294 9.29545C49.6006 9.98485 49.7862 10.7348 49.7862 11.5455V23.5H43.9226V21.0455H43.7862C43.4378 21.697 43.0135 22.2235 42.5135 22.625C42.0211 23.0265 41.4567 23.3182 40.8203 23.5C40.1915 23.6818 39.4984 23.7727 38.7408 23.7727ZM40.7862 19.8182C41.2635 19.8182 41.7105 19.7197 42.1271 19.5227C42.5514 19.3258 42.8961 19.0417 43.1612 18.6705C43.4264 18.2992 43.559 17.8485 43.559 17.3182V15.8636C43.3923 15.9318 43.2143 15.9962 43.0249 16.0568C42.8431 16.1174 42.6461 16.1742 42.434 16.2273C42.2294 16.2803 42.0097 16.3295 41.7749 16.375C41.5476 16.4205 41.309 16.4621 41.059 16.5C40.5741 16.5758 40.1764 16.7008 39.8658 16.875C39.5628 17.0417 39.3355 17.25 39.184 17.5C39.04 17.7424 38.9681 18.0152 38.9681 18.3182C38.9681 18.803 39.1385 19.1742 39.4794 19.4318C39.8203 19.6894 40.2559 19.8182 40.7862 19.8182ZM58.7361 0.227272V23.5H52.4634V0.227272H58.7361ZM72.0212 6.04545V10.5909H60.5212V6.04545H72.0212ZM62.7485 1.86364H69.0212V17.8864C69.0212 18.1288 69.0629 18.3333 69.1462 18.5C69.2296 18.6591 69.3584 18.7803 69.5326 18.8636C69.7068 18.9394 69.9303 18.9773 70.2031 18.9773C70.3925 18.9773 70.6121 18.9545 70.8621 18.9091C71.1197 18.8636 71.3091 18.8258 71.4303 18.7955L72.3394 23.2045C72.0591 23.2879 71.6576 23.3902 71.1349 23.5114C70.6197 23.6326 70.0061 23.7121 69.294 23.75C67.8546 23.8258 66.6462 23.678 65.669 23.3068C64.6917 22.928 63.9568 22.3333 63.4644 21.5227C62.972 20.7121 62.7334 19.697 62.7485 18.4773V1.86364ZM82.437 23.8182C80.5734 23.8182 78.9673 23.4621 77.6189 22.75C76.2779 22.0303 75.2439 21 74.5166 19.6591C73.7969 18.3106 73.437 16.697 73.437 14.8182C73.437 13.0152 73.8007 11.4394 74.5279 10.0909C75.2552 8.74242 76.2817 7.69318 77.6075 6.94318C78.9332 6.19318 80.4976 5.81818 82.3007 5.81818C83.6189 5.81818 84.812 6.02273 85.8802 6.43182C86.9484 6.84091 87.8613 7.43561 88.6189 8.21591C89.3764 8.98864 89.9598 9.92803 90.3689 11.0341C90.7779 12.1402 90.9825 13.3864 90.9825 14.7727V16.2273H75.3916V12.7727H85.2098C85.2022 12.2727 85.0734 11.8333 84.8234 11.4545C84.581 11.0682 84.2514 10.7689 83.8348 10.5568C83.4257 10.3371 82.9598 10.2273 82.437 10.2273C81.9295 10.2273 81.4636 10.3371 81.0393 10.5568C80.6151 10.7689 80.2742 11.0644 80.0166 11.4432C79.7666 11.822 79.634 12.2652 79.6189 12.7727V16.5C79.6189 17.0606 79.7363 17.5606 79.9711 18C80.206 18.4394 80.5431 18.7841 80.9825 19.0341C81.4219 19.2841 81.9522 19.4091 82.5734 19.4091C83.0052 19.4091 83.3992 19.3485 83.7552 19.2273C84.1189 19.1061 84.4295 18.9318 84.687 18.7045C84.9446 18.4697 85.134 18.1894 85.2552 17.8636H90.9825C90.7855 19.0758 90.3196 20.1288 89.5848 21.0227C88.8499 21.9091 87.8764 22.5985 86.6643 23.0909C85.4598 23.5758 84.0507 23.8182 82.437 23.8182ZM93.2221 23.5V6.04545H99.3131V9.36364H99.4949C99.8131 8.13636 100.317 7.23864 101.006 6.67045C101.703 6.10227 102.518 5.81818 103.449 5.81818C103.722 5.81818 103.991 5.84091 104.256 5.88636C104.529 5.92424 104.79 5.98106 105.04 6.05682V11.4091C104.73 11.303 104.347 11.2235 103.893 11.1705C103.438 11.1174 103.048 11.0909 102.722 11.0909C102.109 11.0909 101.555 11.2311 101.063 11.5114C100.578 11.7841 100.196 12.1705 99.9153 12.6705C99.635 13.1629 99.4949 13.7424 99.4949 14.4091V23.5H93.2221Z" fill="#2C353A"/>
<path d="M108.186 23.8636C107.307 23.8636 106.554 23.5568 105.925 22.9432C105.304 22.322 104.997 21.5682 105.004 20.6818C104.997 19.8182 105.304 19.0795 105.925 18.4659C106.554 17.8523 107.307 17.5455 108.186 17.5455C109.02 17.5455 109.754 17.8523 110.391 18.4659C111.035 19.0795 111.36 19.8182 111.368 20.6818C111.36 21.2727 111.205 21.8106 110.902 22.2955C110.607 22.7727 110.22 23.1553 109.743 23.4432C109.266 23.7235 108.747 23.8636 108.186 23.8636Z" fill="#FF481F"/>
</svg>
