<svg width="206" height="19" viewBox="0 0 206 19" fill="none" xmlns="http://www.w3.org/2000/svg">
<path d="M0.146323 4.36364V0.545454H15.3168V4.36364H10.0668V18H5.39632V4.36364H0.146323ZM16.8602 18V0.545454H21.5988V7.36364H27.8715V0.545454H32.6102V18H27.8715V11.1818H21.5988V18H16.8602ZM34.6202 18V0.545454H47.1997V4.36364H39.3588V7.36364H46.552V11.1818H39.3588V14.1818H47.1656V18H34.6202ZM162.039 18H156.925L162.687 0.545454H169.164L174.925 18H169.812L165.993 5.35227H165.857L162.039 18ZM161.084 11.1136H170.698V14.6591H161.084V11.1136ZM176.366 18V0.545454H183.901C185.196 0.545454 186.329 0.801136 187.301 1.3125C188.273 1.82386 189.028 2.54261 189.568 3.46875C190.108 4.39489 190.378 5.47727 190.378 6.71591C190.378 7.96591 190.099 9.0483 189.543 9.96307C188.991 10.8778 188.216 11.5824 187.216 12.0767C186.222 12.571 185.06 12.8182 183.73 12.8182H179.23V9.13636H182.776C183.332 9.13636 183.807 9.03977 184.199 8.84659C184.597 8.64773 184.901 8.36648 185.111 8.00284C185.327 7.6392 185.435 7.21023 185.435 6.71591C185.435 6.21591 185.327 5.78977 185.111 5.4375C184.901 5.07955 184.597 4.80682 184.199 4.61932C183.807 4.42614 183.332 4.32954 182.776 4.32954H181.105V18H176.366ZM191.876 18V0.545454H199.41C200.706 0.545454 201.839 0.801136 202.811 1.3125C203.783 1.82386 204.538 2.54261 205.078 3.46875C205.618 4.39489 205.888 5.47727 205.888 6.71591C205.888 7.96591 205.609 9.0483 205.053 9.96307C204.501 10.8778 203.726 11.5824 202.726 12.0767C201.732 12.571 200.57 12.8182 199.24 12.8182H194.74V9.13636H198.285C198.842 9.13636 199.317 9.03977 199.709 8.84659C200.107 8.64773 200.41 8.36648 200.621 8.00284C200.837 7.6392 200.945 7.21023 200.945 6.71591C200.945 6.21591 200.837 5.78977 200.621 5.4375C200.41 5.07955 200.107 4.80682 199.709 4.61932C199.317 4.42614 198.842 4.32954 198.285 4.32954H196.615V18H191.876Z" fill="#DCDBE6"/>
<path d="M53.7417 18L48.5939 0.545454H53.878L56.2644 11.2841H56.4008L59.2303 0.545454H63.3894L66.2189 11.3182H66.3553L68.7417 0.545454H74.0258L68.878 18H64.3439L61.378 8.25H61.2417L58.2758 18H53.7417ZM77.8149 18H72.7012L78.4626 0.545454H84.9399L90.7012 18H85.5876L81.7694 5.35227H81.6331L77.8149 18ZM76.8603 11.1136H86.474V14.6591H76.8603V11.1136ZM92.1423 18V0.545454H96.881V14.1818H103.938V18H92.1423ZM103.05 4.36364V0.545454H118.221V4.36364H112.971V18H108.3V4.36364H103.05ZM119.764 18V0.545454H132.343V4.36364H124.503V7.36364H131.696V11.1818H124.503V14.1818H132.309V18H119.764ZM134.454 18V0.545454H141.988C143.283 0.545454 144.417 0.78125 145.388 1.25284C146.36 1.72443 147.116 2.40341 147.655 3.28977C148.195 4.17614 148.465 5.23864 148.465 6.47727C148.465 7.72727 148.187 8.78125 147.63 9.6392C147.079 10.4972 146.303 11.1449 145.303 11.5824C144.309 12.0199 143.147 12.2386 141.817 12.2386H137.317V8.55682H140.863C141.42 8.55682 141.894 8.48864 142.286 8.35227C142.684 8.21023 142.988 7.9858 143.198 7.67898C143.414 7.37216 143.522 6.97159 143.522 6.47727C143.522 5.97727 143.414 5.57102 143.198 5.25852C142.988 4.94034 142.684 4.70739 142.286 4.55966C141.894 4.40625 141.42 4.32954 140.863 4.32954H139.192V18H134.454ZM144.681 9.98864L149.045 18H143.897L139.635 9.98864H144.681Z" fill="#3F3D56"/>
<path d="M152.87 18.2727C152.211 18.2727 151.645 18.0426 151.174 17.5824C150.708 17.1165 150.478 16.5511 150.483 15.8864C150.478 15.2386 150.708 14.6847 151.174 14.2244C151.645 13.7642 152.211 13.5341 152.87 13.5341C153.495 13.5341 154.046 13.7642 154.523 14.2244C155.006 14.6847 155.251 15.2386 155.256 15.8864C155.251 16.3295 155.134 16.733 154.907 17.0966C154.685 17.4545 154.395 17.7415 154.037 17.9574C153.68 18.1676 153.29 18.2727 152.87 18.2727Z" fill="#FF481F"/>
</svg>
